<svg width="512" height="512" viewBox="0 0 512 512" fill="none" xmlns="http://www.w3.org/2000/svg">
<path d="M68.1641 6.61436C72.9598 9.83424 76.9432 13.5305 80.9917 17.6309C82.1181 18.7534 82.1181 18.7534 83.2672 19.8986C85.7615 22.3881 88.2451 24.888 90.7288 27.3882C92.5225 29.1828 94.3169 30.9767 96.112 32.7701C99.9649 36.6223 103.813 40.479 107.657 44.34C113.215 49.9223 118.781 55.4961 124.349 61.068C133.385 70.11 142.413 79.1586 151.438 88.2114C160.2 97.0014 168.966 105.788 177.736 114.571C178.277 115.113 178.818 115.655 179.376 116.213C182.091 118.933 184.807 121.652 187.523 124.372C210.025 146.905 232.516 169.449 255 192C257.952 190.67 260.02 189.225 262.295 186.931C262.929 186.297 263.562 185.664 264.215 185.011C264.902 184.313 265.588 183.616 266.296 182.897C267.033 182.157 267.77 181.417 268.529 180.655C271.004 178.167 273.471 175.672 275.939 173.177C277.709 171.394 279.48 169.612 281.252 167.831C285.071 163.989 288.887 160.144 292.701 156.297C298.737 150.209 304.785 144.131 310.835 138.056C312.906 135.975 314.977 133.895 317.049 131.814C317.566 131.294 318.084 130.774 318.617 130.238C324.51 124.319 330.402 118.397 336.292 112.475C336.83 111.934 337.368 111.392 337.923 110.834C346.631 102.078 355.329 93.3119 364.025 84.5432C372.964 75.5297 381.917 66.5297 390.881 57.5413C396.403 52.0039 401.914 46.4558 407.41 40.8933C411.634 36.621 415.876 32.3674 420.125 28.1202C421.857 26.3829 423.583 24.6396 425.303 22.8898C437.934 10.0462 449.142 -0.140992 467.938 -0.37501C480.558 -0.402561 489.976 3.07046 499.555 11.4766C508.258 20.4577 512.598 30.9536 512.438 43.375C512.426 44.62 512.426 44.62 512.415 45.8901C512.021 60.5824 504.538 70.9514 494.369 80.9917C493.621 81.7426 492.872 82.4935 492.101 83.2672C489.612 85.7615 487.112 88.2451 484.612 90.7288C482.817 92.5225 481.023 94.3169 479.23 96.112C475.378 99.9649 471.521 103.813 467.66 107.657C462.078 113.215 456.504 118.781 450.932 124.349C441.89 133.385 432.841 142.413 423.789 151.438C414.999 160.2 406.212 168.966 397.429 177.736C396.887 178.277 396.345 178.818 395.787 179.376C393.067 182.091 390.348 184.807 387.628 187.523C365.095 210.025 342.551 232.516 320 255C321.33 257.952 322.775 260.02 325.069 262.295C325.703 262.929 326.336 263.562 326.989 264.215C327.687 264.901 328.384 265.588 329.103 266.296C329.843 267.033 330.583 267.77 331.345 268.529C333.833 271.004 336.328 273.471 338.823 275.939C340.605 277.709 342.388 279.48 344.169 281.252C348.011 285.071 351.856 288.887 355.703 292.701C361.791 298.737 367.869 304.785 373.944 310.835C376.025 312.906 378.105 314.977 380.186 317.049C380.706 317.566 381.226 318.084 381.762 318.617C387.681 324.51 393.603 330.401 399.525 336.291C400.066 336.83 400.608 337.368 401.166 337.923C409.922 346.631 418.688 355.329 427.457 364.025C436.47 372.964 445.47 381.917 454.459 390.881C459.996 396.403 465.544 401.914 471.107 407.41C475.379 411.634 479.633 415.876 483.88 420.125C485.617 421.857 487.36 423.583 489.11 425.303C501.954 437.934 512.141 449.142 512.375 467.937C512.403 480.558 508.93 489.976 500.523 499.555C491.542 508.258 481.046 512.598 468.625 512.438C467.38 512.426 467.38 512.426 466.11 512.415C451.418 512.021 441.049 504.538 431.008 494.369C430.257 493.621 429.506 492.872 428.733 492.101C426.238 489.612 423.755 487.112 421.271 484.612C419.477 482.817 417.683 481.023 415.888 479.23C412.035 475.378 408.187 471.521 404.343 467.66C398.785 462.078 393.219 456.504 387.651 450.932C378.615 441.89 369.587 432.841 360.562 423.789C351.8 414.999 343.034 406.212 334.264 397.429C333.723 396.887 333.182 396.345 332.624 395.787C329.909 393.067 327.193 390.348 324.477 387.628C301.975 365.095 279.484 342.551 257 320C254.048 321.33 251.98 322.774 249.705 325.069C248.755 326.019 248.755 326.019 247.785 326.989C247.098 327.687 246.412 328.384 245.704 329.103C244.599 330.213 244.599 330.213 243.471 331.345C240.996 333.833 238.529 336.328 236.061 338.823C234.291 340.605 232.52 342.387 230.748 344.169C226.929 348.011 223.113 351.856 219.299 355.703C213.263 361.791 207.215 367.869 201.165 373.944C199.094 376.025 197.023 378.105 194.951 380.186C194.434 380.706 193.916 381.226 193.383 381.762C187.49 387.681 181.598 393.603 175.708 399.525C175.17 400.066 174.632 400.608 174.077 401.165C165.369 409.922 156.671 418.688 147.975 427.457C139.036 436.47 130.083 445.47 121.119 454.459C115.597 459.996 110.086 465.544 104.59 471.107C100.366 475.379 96.1244 479.633 91.8754 483.88C90.1432 485.617 88.4169 487.36 86.6974 489.11C75.0511 500.952 63.9685 511.892 46.4512 512.293C32.5057 512.401 22.6089 509.58 12 500C2.03028 488.96 -0.918138 478.08 -0.382816 463.539C0.496814 450.112 8.37121 440.151 17.6309 431.008C18.3793 430.257 19.1276 429.506 19.8986 428.733C22.3881 426.238 24.8881 423.755 27.3882 421.271C29.1828 419.477 30.9767 417.683 32.7701 415.888C36.6223 412.035 40.479 408.187 44.34 404.343C49.9223 398.785 55.4961 393.219 61.068 387.651C70.11 378.615 79.1586 369.587 88.2114 360.562C97.0014 351.8 105.788 343.034 114.571 334.264C115.113 333.723 115.655 333.182 116.213 332.624C118.933 329.909 121.652 327.193 124.372 324.477C146.905 301.975 169.449 279.484 192 257C190.67 254.048 189.225 251.98 186.931 249.705C185.981 248.755 185.981 248.755 185.011 247.785C184.313 247.098 183.616 246.412 182.897 245.704C181.787 244.599 181.787 244.599 180.655 243.471C178.167 240.996 175.672 238.529 173.177 236.061C171.395 234.291 169.613 232.52 167.831 230.748C163.989 226.929 160.144 223.113 156.297 219.299C150.209 213.263 144.131 207.215 138.056 201.165C135.975 199.094 133.895 197.023 131.814 194.951C131.294 194.434 130.774 193.916 130.238 193.383C124.319 187.49 118.397 181.598 112.475 175.708C111.934 175.17 111.392 174.632 110.834 174.077C102.078 165.369 93.3119 156.671 84.5432 147.975C75.5297 139.036 66.5297 130.083 57.5413 121.119C52.0039 115.597 46.4558 110.086 40.8933 104.59C36.621 100.366 32.3674 96.1243 28.1202 91.8754C26.3829 90.1432 24.6397 88.4169 22.8898 86.6974C10.0452 74.0652 -0.139113 62.8582 -0.375004 44.0625C-0.411782 31.9636 2.75206 22.4719 10.7734 13.2187C26.2849 -2.2383 49.6423 -5.29149 68.1641 6.61436Z" fill="#CBCBCB"/>
</svg>
